PathFileType	4	(X/Y/Z)	/Users/itak/Documents/Research/Walk-IL/dataset/trc/00168_00008.trc
DataRate	CameraRate	NumFrames	NumMarkers	Units	OrigDataRate	OrigDataStartFrame	OrigNumFrames
100.000000	100.000000	4	53	mm	100.000000	620	709
Frame#	Time	RPSI			LPSI			L3			STRN			T10			C7			CLAV			RBAK			LBAK			LSHO			LUPA			LAEL			LAOL			LWTS			LWPS			LFRA			LIFD			LHPS			LHTS			RSHO			RUPA			RAEL			RAOL			RWTS			RWPS			RFRA			RIFD			RHTS			RHPS			RBHD			LFHD			RFHD			LBHD			LHIP			RHIP			RASI			LASI			LKNE			LTHI			LANK			LTIP			LTOE			LMT1			LMT5			LHEE			RKNE			RTHI			RANK			RTIP			RTOE			RMT1			RMT5			RHEE			
		X1	Y1	Z1	X2	Y2	Z2	X3	Y3	Z3	X4	Y4	Z4	X5	Y5	Z5	X6	Y6	Z6	X7	Y7	Z7	X8	Y8	Z8	X9	Y9	Z9	X10	Y10	Z10	X11	Y11	Z11	X12	Y12	Z12	X13	Y13	Z13	X14	Y14	Z14	X15	Y15	Z15	X16	Y16	Z16	X17	Y17	Z17	X18	Y18	Z18	X19	Y19	Z19	X20	Y20	Z20	X21	Y21	Z21	X22	Y22	Z22	X23	Y23	Z23	X24	Y24	Z24	X25	Y25	Z25	X26	Y26	Z26	X27	Y27	Z27	X28	Y28	Z28	X29	Y29	Z29	X30	Y30	Z30	X31	Y31	Z31	X32	Y32	Z32	X33	Y33	Z33	X34	Y34	Z34	X35	Y35	Z35	X36	Y36	Z36	X37	Y37	Z37	X38	Y38	Z38	X39	Y39	Z39	X40	Y40	Z40	X41	Y41	Z41	X42	Y42	Z42	X43	Y43	Z43	X44	Y44	Z44	X45	Y45	Z45	X46	Y46	Z46	X47	Y47	Z47	X48	Y48	Z48	X49	Y49	Z49	X50	Y50	Z50	X51	Y51	Z51	X52	Y52	Z52	X53	Y53	Z53	

621	6.2	-975.1236572265625	1066.03955078125	229.1541137695312	-981.8825073242188	1064.64306640625	105.3709259033203	-975.8031005859375	1103.24658203125	166.9568023681641	-723.6904907226562	1312.386840820312	138.4734497070312	-1011.690002441406	1253.496459960938	149.380126953125	-961.5923461914062	1526.23291015625	122.0325469970703	-756.5791625976562	1424.145874023438	125.6724090576172	-1016.623962402344	1350.341918945312	239.1133575439453	-968.0807495117188	1496.407836914062	21.89573669433594	-890.6062622070312	1481.139404296875	-57.8868293762207	-916.8114013671875	1343.932495117188	-125.3493576049805	-887.1604614257812	1125.68603515625	-133.8587493896484	-935.5099487304688	1111.271850585938	-61.73540878295898	-758.8196411132812	906.524169921875	-83.52922821044922	-835.261962890625	876.6146850585938	-127.0766296386719	-863.7545776367188	1016.278869628906	-140.8412933349609	-728.2918090820312	726.3721923828125	-49.93994140625	-807.8076171875	809.648193359375	-118.2760925292969	-739.068115234375	829.1487426757812	-100.2148284912109	-893.30615234375	1510.318237304688	302.5281677246094	-909.8750610351562	1445.81591796875	374.2590637207031	-918.9677124023438	1160.141235351562	441.5479431152344	-925.1796875	1148.365966796875	342.8640441894531	-771.0172119140625	938.724853515625	425.2738037109375	-842.1339111328125	920.0620727539062	476.038330078125	-890.8923950195312	1089.288696289062	461.9106140136719	-750.5604858398438	750.6311645507812	406.9444885253906	-741.0481567382812	845.676025390625	435.3316345214844	-813.1510009765625	837.7907104492188	474.9078369140625	-905.809326171875	1697.0361328125	192.13330078125	-753.761962890625	1736.152709960938	41.92187881469727	-739.2278442382812	1742.587158203125	170.8582763671875	-928.1028442382812	1698.021728515625	56.09473037719727	-888.1380615234375	1000.056579589844	-17.22443008422852	-818.8009643554688	1021.053344726562	348.8829345703125	-741.6341552734375	1050.498779296875	287.484619140625	-757.92626953125	1035.215698242188	29.06645393371582	-835.0216674804688	502.1092834472656	32.09170532226562	-842.8077392578125	643.546142578125	-0.792660653591156	-922.3269653320312	37.95662689208984	48.17683792114258	-873.8927001953125	273.2738342285156	28.1468677520752	-704.8092041015625	46.65816116333008	61.09765625	-748.5706787109375	46.91657638549805	112.4270858764648	-816.4954223632812	31.6060848236084	4.003951549530029	-969.206298828125	39.85990905761719	121.4121627807617	-776.8641357421875	516.4774780273438	323.060302734375	-753.37548828125	788.68701171875	354.0407409667969	-900.8018188476562	38.88134765625	334.34521484375	-772.7752685546875	392.8876037597656	308.3469848632812	-677.129150390625	41.20960235595703	301.853515625	-732.24365234375	39.29319000244141	256.0516357421875	-789.1320190429688	36.26074600219727	370.6180725097656	-950.920166015625	39.7176628112793	265.3861694335938	
622	6.21	-974.1468505859375	1066.255249023438	230.00732421875	-981.2415771484375	1064.844360351562	106.2099838256836	-974.9456176757812	1103.45166015625	167.7404327392578	-722.9097900390625	1312.312255859375	138.756103515625	-1010.870727539062	1253.585327148438	149.9780883789062	-960.7430419921875	1526.303466796875	122.5178909301758	-755.8033447265625	1424.080688476562	126.0025787353516	-1015.74169921875	1350.380859375	239.6316375732422	-967.306640625	1496.395629882812	22.40847015380859	-889.8497924804688	1481.2353515625	-57.47464752197266	-916.1593017578125	1343.973876953125	-124.8925018310547	-886.4486694335938	1125.715942382812	-133.3076782226562	-934.8095703125	1111.339599609375	-61.19489669799805	-758.0464477539062	906.6031494140625	-82.75562286376953	-834.3749389648438	876.6680297851562	-126.3656768798828	-862.9683227539062	1016.299926757812	-140.2135314941406	-728.0794677734375	727.010009765625	-48.49863052368164	-806.9425048828125	809.6974487304688	-117.4437561035156	-738.2398071289062	829.22119140625	-99.34913635253906	-892.3394775390625	1510.291625976562	302.9580688476562	-908.85302734375	1445.795288085938	374.7017822265625	-917.8511352539062	1160.158813476562	442.1351623535156	-924.11474609375	1148.316528320312	343.4773864746094	-769.7610473632812	938.833984375	425.8053283691406	-840.7874145507812	920.1214599609375	476.6216735839844	-889.7042846679688	1089.314086914062	462.4904479980469	-749.1408081054688	750.7665405273438	407.51806640625	-739.6732177734375	845.81396484375	435.85009765625	-811.7540893554688	837.9059448242188	475.48583984375	-904.8797607421875	1696.941528320312	192.8169708251953	-752.6881713867188	1736.2919921875	42.82739639282227	-738.2212524414062	1742.449462890625	171.7972869873047	-927.0975341796875	1698.273681640625	56.81066513061523	-887.86767578125	1000.105834960938	-16.52419281005859	-817.6543579101562	1021.042541503906	349.3654479980469	-740.643310546875	1050.352783203125	287.7347106933594	-757.5859375	1035.14453125	29.40914535522461	-834.5496826171875	502.0960083007812	32.3359260559082	-842.3743286132812	643.541259765625	-0.4086480736732483	-922.3233032226562	37.96056747436523	48.15645217895508	-873.618896484375	273.2922058105469	28.28892707824707	-704.7955932617188	46.63780975341797	61.13765716552734	-748.5594482421875	46.89827346801758	112.4420013427734	-816.4873046875	31.61575126647949	4.0074462890625	-969.1974487304688	39.87253189086914	121.3961715698242	-774.6064453125	516.4840087890625	322.7068176269531	-751.6992797851562	788.7328491210938	354.0962219238281	-900.3302001953125	39.55253601074219	334.1923217773438	-770.6668090820312	392.8242797851562	307.7638244628906	-676.7197875976562	40.78528213500977	301.676025390625	-731.8873291015625	38.95907592773438	255.7693023681641	-788.8525390625	36.52003479003906	370.3254699707031	-950.6854858398438	40.49752426147461	265.3948669433594	
623	6.22	-973.2152099609375	1066.514404296875	230.84521484375	-980.6416625976562	1065.045654296875	107.0321426391602	-974.1214599609375	1103.67578125	168.4881134033203	-722.1542358398438	1312.2412109375	139.0285186767578	-1010.07861328125	1253.71533203125	150.5294799804688	-959.8828125	1526.408203125	122.9493560791016	-755.0542602539062	1424.03515625	126.3031158447266	-1014.88916015625	1350.470092773438	240.1070709228516	-966.483154296875	1496.370361328125	22.85358619689941	-889.086181640625	1481.331420898438	-57.10235214233398	-915.498779296875	1344.0146484375	-124.4731597900391	-885.773193359375	1125.732666015625	-132.7845764160156	-934.140869140625	1111.41064453125	-60.66963958740234	-757.3460693359375	906.6591796875	-82.00082397460938	-833.58544921875	876.70263671875	-125.6646881103516	-862.2359008789062	1016.311157226562	-139.6054992675781	-727.9586791992188	727.7501220703125	-46.93703079223633	-806.1857299804688	809.7166137695312	-116.6200103759766	-737.528076171875	829.2529907226562	-98.50074005126953	-891.3775634765625	1510.310180664062	303.3462829589844	-907.8472290039062	1445.815063476562	375.1063537597656	-916.7521362304688	1160.215454101562	442.6915588378906	-923.0720825195312	1148.297729492188	344.0712280273438	-768.50830078125	938.9904174804688	426.3497314453125	-839.4607543945312	920.2260131835938	477.197265625	-888.5400390625	1089.377075195312	463.0505065917969	-747.7103881835938	750.9598999023438	408.1226501464844	-738.3082275390625	846.0093383789062	436.3881225585938	-810.3707885742188	838.0668334960938	476.0697937011719	-903.966796875	1696.86328125	193.4708709716797	-751.6000366210938	1736.466064453125	43.72294616699219	-737.2261352539062	1742.33642578125	172.7273559570312	-926.0747680664062	1698.538818359375	57.47091293334961	-887.6211547851562	1000.130126953125	-15.82007026672363	-816.54736328125	1021.1328125	349.8661499023438	-739.6937866210938	1050.277099609375	287.9673461914062	-757.2686157226562	1035.079467773438	29.74917793273926	-834.0469360351562	502.0857543945312	32.61078262329102	-841.9163818359375	643.5244140625	0.007862498983740807	-922.3189086914062	37.96882247924805	48.15006637573242	-873.34814453125	273.3037414550781	28.46013259887695	-704.7877807617188	46.62278366088867	61.17749786376953	-748.5481567382812	46.8800048828125	112.4571914672852	-816.478271484375	31.63183212280273	4.017336368560791	-969.1895141601562	39.87985992431641	121.3938369750977	-772.243408203125	516.5963134765625	322.3161315917969	-750.0020751953125	788.858154296875	354.1128845214844	-899.8339233398438	40.33694076538086	334.1019592285156	-768.4957885742188	392.8455505371094	307.1861877441406	-676.3416137695312	40.45050811767578	301.4858093261719	-731.5547485351562	38.65800476074219	255.4996032714844	-788.5009765625	36.84265899658203	370.0166625976562	-950.4609375	41.38814926147461	265.5142517089844	
624	6.23	-972.341064453125	1066.822265625	231.6452484130859	-980.0758056640625	1065.254638671875	107.8220520019531	-973.3348388671875	1103.93017578125	169.1880340576172	-721.4351196289062	1312.186157226562	139.2923889160156	-1009.3212890625	1253.892211914062	151.0323028564453	-959.0140991210938	1526.555786132812	123.3313293457031	-754.329345703125	1424.020874023438	126.5818099975586	-1014.069396972656	1350.618774414062	240.5431823730469	-965.6046142578125	1496.345336914062	23.23490715026855	-888.3211669921875	1481.432739257812	-56.76464080810547	-914.8230590820312	1344.06591796875	-124.0859527587891	-885.1282958984375	1125.7470703125	-132.2918395996094	-933.5021362304688	1111.491943359375	-60.16587066650391	-756.7208251953125	906.697509765625	-81.26152801513672	-832.8999633789062	876.7276611328125	-124.9733276367188	-861.5560302734375	1016.321166992188	-139.0179138183594	-727.8836059570312	728.5723266601562	-45.29253387451172	-805.5410766601562	809.7164306640625	-115.8107833862305	-736.935302734375	829.2565307617188	-97.67095184326172	-890.4264526367188	1510.381713867188	303.7002563476562	-906.8650512695312	1445.8818359375	375.4778442382812	-915.6690063476562	1160.314453125	443.2168579101562	-922.060546875	1148.318237304688	344.6428527832031	-767.2577514648438	939.1988525390625	426.8959045410156	-838.1574096679688	920.3804931640625	477.76025390625	-887.3960571289062	1089.483032226562	463.5893249511719	-746.2825927734375	751.2100219726562	408.7477416992188	-736.9622802734375	846.2659912109375	436.9394836425781	-809.0064697265625	838.2764892578125	476.6570739746094	-903.0656127929688	1696.81982421875	194.0959014892578	-750.498046875	1736.67822265625	44.60375595092773	-736.2407836914062	1742.257568359375	173.640380859375	-925.0294189453125	1698.824951171875	58.07349014282227	-887.3880615234375	1000.126953125	-15.12579154968262	-815.481689453125	1021.345642089844	350.3761291503906	-738.7863159179688	1050.289794921875	288.1863403320312	-756.9603881835938	1035.025512695312	30.08493041992188	-833.520751953125	502.0796813964844	32.91360855102539	-841.4560546875	643.4992065429688	0.4405121505260468	-922.3142700195312	37.98177719116211	48.1559944152832	-873.0813598632812	273.3087463378906	28.65637016296387	-704.7868041992188	46.61563110351562	61.21492385864258	-748.5382080078125	46.86334228515625	112.4715042114258	-816.4674072265625	31.65287590026855	4.032910823822021	-969.1829833984375	39.88289260864258	121.4034881591797	-769.8048706054688	516.827392578125	321.9209594726562	-748.3102416992188	789.0848388671875	354.1131286621094	-899.315673828125	41.23290634155273	334.1257019042969	-766.294189453125	392.9681091308594	306.6554260253906	-675.9940185546875	40.19303512573242	301.2838439941406	-731.256591796875	38.40279006958008	255.2627868652344	-788.0614013671875	37.20460891723633	369.7312622070312	-950.251708984375	42.39907836914062	265.7972412109375	
